<svg width="28" height="28" xmlns="http://www.w3.org/2000/svg" xmlns:xlink="http://www.w3.org/1999/xlink" xml:space="preserve" overflow="hidden"><defs><clipPath id="clip0"><rect x="631" y="359" width="28" height="28"/></clipPath></defs><g clip-path="url(#clip0)" transform="translate(-631 -359)"><path d="M639.458 381.167 639.458 380.875 640.625 380.875C642.696 380.875 642.842 383.208 646.75 383.208L652 383.208C652.965 383.205 653.747 382.424 653.75 381.458 653.757 381.025 653.59 380.607 653.288 380.297 653.287 380.295 653.287 380.294 653.288 380.293 653.289 380.292 653.289 380.292 653.29 380.292L653.458 380.292C654.424 380.289 655.205 379.507 655.208 378.542 655.213 378.085 655.035 377.646 654.716 377.32 654.714 377.319 654.714 377.317 654.715 377.316 654.715 377.316 654.715 377.316 654.716 377.315 655.655 377.109 656.249 376.181 656.042 375.242 655.967 374.898 655.789 374.585 655.532 374.345 655.531 374.344 655.531 374.342 655.532 374.341 655.532 374.341 655.532 374.34 655.532 374.34 656.22 374.094 656.675 373.439 656.667 372.708 656.664 371.743 655.882 370.961 654.917 370.958L649.375 370.958C648.906 370.95 648.524 370.581 648.5 370.112 648.529 369.587 649.372 368.541 649.375 364.561 649.38 363.652 648.692 362.889 647.787 362.799 647.733 362.794 647.679 362.792 647.625 362.792 646.659 362.792 645.875 363.575 645.875 364.542 645.875 368.147 642.463 370.479 641.139 371.256 640.819 371.443 640.455 371.542 640.084 371.542L639.458 371.542 639.458 371.25C639.456 370.607 638.935 370.085 638.292 370.083L633.333 370.083 633.333 382.333 638.292 382.333C638.935 382.331 639.456 381.81 639.458 381.167ZM640.084 372.125C640.56 372.125 641.026 371.998 641.436 371.758 642.946 370.871 646.458 368.392 646.458 364.542 646.458 363.897 646.981 363.375 647.625 363.375 648.269 363.374 648.793 363.895 648.794 364.54 648.794 364.564 648.793 364.588 648.792 364.612 648.784 367.458 648.339 368.714 648.099 369.388 648.006 369.609 647.944 369.842 647.917 370.08 647.916 370.101 647.916 370.122 647.917 370.143 647.96 370.919 648.597 371.53 649.375 371.542L654.915 371.542C655.561 371.546 656.082 372.07 656.083 372.715 656.089 373.198 655.788 373.63 655.333 373.792 655.03 373.9 654.872 374.234 654.98 374.537 655.011 374.626 655.063 374.705 655.132 374.768 655.391 375.009 655.526 375.355 655.5 375.708 655.444 376.221 655.066 376.642 654.562 376.753 654.251 376.838 654.067 377.158 654.151 377.469 654.177 377.566 654.228 377.655 654.299 377.726 654.511 377.944 654.628 378.236 654.625 378.54 654.622 379.183 654.102 379.704 653.458 379.708L653.283 379.708C652.961 379.709 652.7 379.97 652.7 380.292 652.7 380.445 652.76 380.591 652.867 380.7 653.064 380.902 653.172 381.174 653.167 381.457 653.163 382.1 652.643 382.621 652 382.625L646.75 382.625C644.689 382.625 643.831 381.954 643.001 381.308 642.36 380.809 641.698 380.292 640.625 380.292L639.458 380.292 639.458 372.125ZM633.917 370.667 638.292 370.667C638.613 370.669 638.872 370.929 638.875 371.25L638.875 381.165C638.874 381.487 638.614 381.748 638.292 381.75L633.917 381.75Z"/></g></svg>